<svg width="443" height="321" viewBox="0 0 443 321" fill="none" xmlns="http://www.w3.org/2000/svg">
<path d="M211.135 289H39.4675V65.6716H126.424C145.035 65.6716 160.223 68.9873 171.989 75.6187C183.54 82.0362 192.524 90.8067 198.942 101.93C205.359 113.054 208.568 125.354 208.568 138.831C208.568 155.516 203.434 170.49 193.166 183.753C182.898 196.802 169.956 205.466 154.34 209.744L211.135 289ZM59.6826 77.5439L146.96 199.476C161.293 196.481 173.165 189.315 182.577 177.978C191.99 166.64 196.696 153.591 196.696 138.831C196.696 127.066 193.808 116.37 188.032 106.743C182.257 97.1173 174.128 89.7372 163.646 84.6032C154.234 79.897 141.933 77.5439 126.745 77.5439H59.6826ZM51.3399 85.2449V200.439H133.805L51.3399 85.2449ZM51.3399 277.128H188.674L141.826 211.99L131.879 212.311H51.3399V277.128ZM322.554 72.7308C308.221 72.7308 294.852 76.3674 282.444 83.6406C270.251 90.6998 260.518 100.433 253.245 112.84C245.972 125.033 242.335 138.403 242.335 152.949V195.305C242.335 210.493 244.474 223.007 248.753 232.847C254.742 246.752 263.834 258.089 276.027 266.86C288.22 275.63 301.911 280.55 317.099 281.62V177.336H414.965V198.513C414.965 212.204 412.933 224.397 408.869 235.093C402.237 252.848 391.114 267.074 375.498 277.769C359.882 288.465 342.234 293.813 322.554 293.813C303.943 293.813 286.937 288.786 271.535 278.732C256.347 268.464 245.223 254.88 238.164 237.981C233.03 226.002 230.463 211.776 230.463 195.305V152.949C230.463 136.264 234.527 120.862 242.656 106.743C250.999 92.625 262.229 81.5014 276.348 73.3726C290.466 65.0299 305.868 60.8585 322.554 60.8585C336.458 60.8585 349.186 63.2116 360.738 67.9177C372.289 72.41 382.129 79.0414 390.258 87.8119C396.89 95.0851 402.237 103.214 406.302 112.198C410.58 121.183 412.719 130.274 412.719 139.473H401.168C400.954 131.558 398.922 123.75 395.071 116.049C391.435 108.348 386.729 101.396 380.953 95.192C366.62 80.2179 347.154 72.7308 322.554 72.7308ZM403.093 188.887H328.65V281.62C344.052 280.55 357.85 275.737 370.043 267.181C382.45 258.41 391.542 246.859 397.317 232.526C401.168 222.472 403.093 211.135 403.093 198.513V188.887Z" fill="#D9D9D9"/>
<circle cx="353.694" cy="216.972" r="8.91667" stroke="#D9D9D9" stroke-width="4.75556"/>
</svg>
